<svg xmlns="http://www.w3.org/2000/svg" viewBox="0 0 128 128" width="128" height="128">
  <defs>
    <radialGradient id="bg" cx="50%" cy="40%" r="70%">
      <stop offset="0%" stop-color="#1f2560"/><stop offset="100%" stop-color="#05060f"/>
    </radialGradient>
    <linearGradient id="moon" x1="0" y1="0" x2="1" y2="1">
      <stop offset="0%" stop-color="#fde68a"/><stop offset="100%" stop-color="#f59e0b"/>
    </linearGradient>
    <filter id="glow" x="-50%" y="-50%" width="200%" height="200%">
      <feGaussianBlur stdDeviation="3" result="b"/>
      <feMerge><feMergeNode in="b"/><feMergeNode in="SourceGraphic"/></feMerge>
    </filter>
  </defs>
  <rect width="128" height="128" rx="28" fill="url(#bg)"/>
  <g filter="url(#glow)">
    <path d="M88 30a34 34 0 1 0 10 44 27 27 0 0 1-10-44z" fill="url(#moon)" stroke="#38bdf8" stroke-width="2"/>
    <path d="M30 96h68l-6 14H36z" fill="#a855f7" opacity="0.85"/>
    <path d="M26 96h76v6H26z" fill="#38bdf8"/>
    <path d="M40 96V70a6 6 0 0 1 6-6h36a6 6 0 0 1 6 6v26z" fill="none" stroke="#a855f7" stroke-width="3"/>
    <text x="64" y="88" text-anchor="middle" font-family="Arial Black,Arial" font-size="26" fill="#fff">N</text>
  </g>
</svg>